<?xml version="1.0" encoding="utf-8"?>
<!-- Generator: Adobe Illustrator 25.0.0, SVG Export Plug-In . SVG Version: 6.00 Build 0)  -->
<svg version="1.1" id="Layer_1" xmlns="http://www.w3.org/2000/svg" xmlns:xlink="http://www.w3.org/1999/xlink" x="0px" y="0px"
	 viewBox="0 0 500 500" style="enable-background:new 0 0 500 500;" xml:space="preserve">
<style type="text/css">
	.st0{fill-rule:evenodd;clip-rule:evenodd;}
	.st1{fill:#FFFFFF;}
</style>
<ellipse transform="matrix(0.7071 -0.7071 0.7071 0.7071 -103.8867 249.862)" class="st0" cx="249.67" cy="250.33" rx="147.5" ry="147.5"/>
<path class="st1" d="M298.62,297.9h4.34c1.19,0,2.13-0.37,2.8-1.11c0.61-0.68,0.93-1.57,0.94-2.69c0-1.13-0.31-2.04-0.94-2.73
	c-0.66-0.74-1.59-1.11-2.8-1.11h-4.34V297.9z M302.95,289.23c1.57,0,2.79,0.47,3.65,1.41c0.8,0.86,1.2,2.01,1.2,3.44
	c0,1.43-0.41,2.58-1.23,3.47c-0.86,0.96-2.07,1.44-3.63,1.44h-5.44v-16.5h9.03v1.04h-7.92v5.7H302.95z M284.12,282.48h1.25
	l4.67,10.11h0.05l4.24-10.11h1.2v0.12l-5.96,13.79c-0.5,1.19-1.07,2-1.7,2.4c-0.77,0.5-1.71,0.48-2.81-0.07l0.16-1.01
	c1.41,0.86,2.49,0.34,3.23-1.58l1.01-2.33l-5.35-11.2V282.48z M270.83,298.82l5.99-16.55h0.52l5.99,16.55v0.16h-1.11l-5.16-14.59
	l-5.11,14.59h-1.11V298.82z M260.24,290.38c1.82,0,3.01-0.19,3.56-0.57c0.6-0.41,1.19-1.81,1.79-4.2c0.31-1.26,0.73-2.12,1.25-2.59
	c0.61-0.55,1.5-0.72,2.66-0.52v0.87c-0.91-0.13-1.57,0.02-1.98,0.42c-0.36,0.35-0.67,1.04-0.92,2.07c-0.6,2.39-1.23,3.91-1.91,4.55
	l5.16,8.39v0.16h-1.18l-4.86-8.04c-0.5,0.3-1.7,0.45-3.58,0.45v7.59h-1.08v-16.5h1.08V290.38z M241.39,286.19
	c-0.02-1.35,0.44-2.38,1.37-3.09c0.79-0.61,1.8-0.92,3.04-0.92c1.26,0,2.28,0.37,3.06,1.11c0.85,0.77,1.27,1.82,1.27,3.16
	c0,0.85-0.24,1.61-0.73,2.29c-0.47,0.63-1.05,1.05-1.74,1.27c0.94,0.28,1.7,0.8,2.29,1.56c0.61,0.82,0.92,1.78,0.92,2.88
	c0,1.6-0.49,2.82-1.46,3.65c-0.9,0.75-2.1,1.13-3.61,1.13c-1.41,0-2.56-0.42-3.44-1.27c-0.93-0.9-1.39-2.14-1.39-3.72h1.01
	c0,1.26,0.38,2.25,1.13,2.97c0.71,0.68,1.6,1.01,2.69,1.01c2.64,0,3.96-1.27,3.96-3.82c0-1.19-0.41-2.15-1.23-2.88
	c-0.74-0.64-1.65-0.97-2.73-0.97h-1.23v-0.99h1.2c0.88,0,1.63-0.26,2.26-0.78c0.71-0.58,1.06-1.35,1.06-2.31
	c0-1.1-0.34-1.94-1.01-2.52c-0.58-0.52-1.34-0.78-2.29-0.78c-2.25,0-3.37,1.01-3.37,3.02H241.39z M233.16,284.39l-3.39,8.79h6.76
	L233.16,284.39z M226.35,298.98v-0.14l6.58-16.41h0.49l6.51,16.41v0.14h-1.16l-1.86-4.76h-7.52l-1.86,4.76H226.35z M224.42,298.98
	l-4.86-8.08c-0.64,0.38-1.5,0.57-2.57,0.57v7.52h-1.08v-7.52c-1.02,0-1.85-0.19-2.5-0.57l-4.86,8.08h-1.27v-0.16l5.14-8.39
	c-0.68-0.64-1.3-2.12-1.89-4.43c-0.28-1.1-0.61-1.83-0.99-2.19c-0.41-0.41-1.05-0.54-1.91-0.4v-0.9c1.08-0.19,1.94-0.02,2.57,0.49
	c0.58,0.5,1.03,1.38,1.34,2.64c0.44,1.81,0.82,2.94,1.13,3.39c0.6,0.9,1.67,1.37,3.23,1.41v-7.97h1.08v7.97
	c1.51,0,2.58-0.45,3.21-1.34c0.38-0.52,0.78-1.67,1.2-3.44c0.3-1.26,0.75-2.14,1.34-2.64c0.63-0.53,1.49-0.71,2.57-0.52v0.9
	c-0.85-0.14-1.49-0.01-1.91,0.4c-0.39,0.38-0.73,1.11-1.01,2.19c-0.6,2.34-1.23,3.82-1.89,4.43c1.4,2.29,3.12,5.09,5.16,8.39v0.16
	H224.42z M199.48,284.44h-0.02l-4.29,13.51H204L199.48,284.44z M192.48,297.95h1.53l5.21-15.7h0.47l5.44,15.7h1.58v4.03h-0.92v-2.99
	h-12.35v2.99h-0.97V297.95z M334.87,230.71h28.19v4.32h-28.19v28.87h29.76v4.52h-34.18v-68.75h33.79v4.32h-29.37V230.71z
	 M263.07,234.05c0-10.54,2.68-19.05,8.05-25.54c5.37-6.55,12.47-9.82,21.31-9.82c6.22,0,11.52,1.57,15.91,4.71
	c4.91,3.47,8.15,8.54,9.72,15.22h-4.42c-2.88-10.48-9.98-15.71-21.31-15.71c-7.86,0-14.01,2.95-18.46,8.84
	c-4.19,5.63-6.29,13.06-6.29,22.29c0,9.62,2.1,17.12,6.29,22.49c4.39,5.63,10.57,8.45,18.56,8.45c11.39,0,18.6-5.66,21.61-16.99
	h4.42c-1.37,6.94-4.65,12.34-9.82,16.21c-4.65,3.47-10.05,5.21-16.21,5.21c-9.17,0-16.37-3.18-21.61-9.53
	C265.66,253.59,263.07,244.98,263.07,234.05z M199.33,234.05c0-10.54,2.68-19.05,8.05-25.54c5.37-6.55,12.47-9.82,21.31-9.82
	c6.22,0,11.52,1.57,15.91,4.71c4.91,3.47,8.15,8.54,9.72,15.22h-4.42c-2.88-10.48-9.98-15.71-21.31-15.71
	c-7.86,0-14.01,2.95-18.46,8.84c-4.19,5.63-6.29,13.06-6.29,22.29c0,9.62,2.1,17.12,6.29,22.49c4.39,5.63,10.57,8.45,18.56,8.45
	c11.39,0,18.6-5.66,21.61-16.99h4.42c-1.37,6.94-4.65,12.34-9.82,16.21c-4.65,3.47-10.05,5.21-16.21,5.21
	c-9.17,0-16.37-3.18-21.61-9.53C201.92,253.59,199.33,244.98,199.33,234.05z M190.1,234.05c0,10.87-2.62,19.45-7.86,25.73
	c-5.24,6.29-12.41,9.43-21.51,9.43c-6.22,0-11.62-1.7-16.21-5.11c-5.17-3.8-8.45-9.17-9.82-16.11h4.42
	c2.95,11.2,10.15,16.79,21.61,16.79c7.79,0,13.85-2.62,18.17-7.86c4.19-5.11,6.42-12.24,6.68-21.41h-27.6v-4.42h27.5
	c-0.46-8.45-2.75-15.16-6.87-20.13c-4.39-5.24-10.31-7.86-17.78-7.86c-11.33,0-18.43,5.24-21.31,15.71h-4.42
	c1.57-6.68,4.81-11.75,9.72-15.22c4.39-3.14,9.69-4.71,15.91-4.71c8.84,0,15.94,3.24,21.31,9.72
	C187.42,215.09,190.1,223.57,190.1,234.05z"/>
</svg>
